<svg width="36" height="35" viewBox="0 0 36 35" fill="none" xmlns="http://www.w3.org/2000/svg">
<path d="M0.713135 0H10.6668C24.4739 0 35.6668 11.1929 35.6668 25V35H15.7131C7.42887 35 0.713135 28.2843 0.713135 20V0Z" fill="#35373B"/>
<path d="M12.3566 15.8334C11.4399 15.8334 10.6899 16.5834 10.6899 17.5C10.6899 18.4167 11.4399 19.1667 12.3566 19.1667C13.2733 19.1667 14.0233 18.4167 14.0233 17.5C14.0233 16.5834 13.2733 15.8334 12.3566 15.8334Z" stroke="#C0C0D6" stroke-width="1.5"/>
<path d="M24.0234 15.8334C23.1067 15.8334 22.3567 16.5834 22.3567 17.5C22.3567 18.4167 23.1067 19.1667 24.0234 19.1667C24.94 19.1667 25.69 18.4167 25.69 17.5C25.69 16.5834 24.94 15.8334 24.0234 15.8334Z" stroke="#C0C0D6" stroke-width="1.5"/>
<path d="M18.1899 15.8334C17.2732 15.8334 16.5232 16.5834 16.5232 17.5C16.5232 18.4167 17.2732 19.1667 18.1899 19.1667C19.1065 19.1667 19.8565 18.4167 19.8565 17.5C19.8565 16.5834 19.1065 15.8334 18.1899 15.8334Z" stroke="#C0C0D6" stroke-width="1.5"/>
</svg>
