<svg width="17" height="17" viewBox="0 0 17 17" fill="none" xmlns="http://www.w3.org/2000/svg">
<path d="M13.4665 5.66663H3.5498C3.16022 5.66663 2.84147 5.34788 2.84147 4.95829C2.84147 4.56871 3.16022 4.24996 3.5498 4.24996H13.4665C13.8561 4.24996 14.1748 4.56871 14.1748 4.95829C14.1748 5.34788 13.8561 5.66663 13.4665 5.66663ZM12.0498 1.41663H4.96647C4.57689 1.41663 4.25814 1.73538 4.25814 2.12496C4.25814 2.51454 4.57689 2.83329 4.96647 2.83329H12.0498C12.4394 2.83329 12.7581 2.51454 12.7581 2.12496C12.7581 1.73538 12.4394 1.41663 12.0498 1.41663ZM15.5915 8.49996V14.1666C15.5915 14.9458 14.954 15.5833 14.1748 15.5833H2.84147C2.0623 15.5833 1.4248 14.9458 1.4248 14.1666V8.49996C1.4248 7.72079 2.0623 7.08329 2.84147 7.08329H14.1748C14.954 7.08329 15.5915 7.72079 15.5915 8.49996ZM10.7677 11.0216L7.09147 9.01704V13.6425L10.7677 11.645C11.0156 11.5104 11.0156 11.1562 10.7677 11.0216Z" fill="white" fill-opacity="0.8"/>
</svg>
